<?xml version="1.0" ?><svg id="Layer_1" style="enable-background:new 0 0 50 50;" version="1.1" viewBox="0 0 50 50" xml:space="preserve" xmlns="http://www.w3.org/2000/svg" xmlns:xlink="http://www.w3.org/1999/xlink"><style type="text/css">
	.st0{fill:#F0C4DB;}
	.st1{fill:#FF9D9C;}
	.st2{fill:#9BEAF9;}
	.st3{fill:#E9F4BC;}
	.st4{fill:#505050;}
	.st5{fill:#FEBECC;}
	.st6{fill:#FFFFFF;}
	.st7{fill:#FDE4A1;}
	.st8{fill:#FEE7B5;}
	.st9{fill:#CDF6FC;}
	.st10{fill:#F2C6DD;}
	.st11{opacity:0.1;}
</style><g><path class="st0" d="M1.71,38.36H32.1c0-11.6-9.4-21-21-21c-3.38,0-6.56,0.82-9.39,2.24V38.36z"/><g><circle class="st3" cx="25.94" cy="13.27" r="11.27"/><path class="st1" d="M47.54,48H4.35c0.07-9.87,6.75-18.16,15.83-20.67l5.76,9.99l5.76-9.99C40.79,29.84,47.47,38.13,47.54,48z"/><g><path class="st4" d="M25.94,25.3c6.63,0,12.02-5.39,12.02-12.02S32.57,1.25,25.94,1.25S13.92,6.64,13.92,13.27     S19.31,25.3,25.94,25.3z M25.94,2.75c5.8,0,10.52,4.72,10.52,10.52S31.75,23.8,25.94,23.8s-10.52-4.72-10.52-10.52     S20.14,2.75,25.94,2.75z"/><path class="st4" d="M31.91,26.61c-0.33-0.09-0.68,0.05-0.85,0.35l-5.12,8.87l-5.11-8.87c-0.17-0.3-0.52-0.44-0.85-0.35     C10.4,29.25,3.67,38.05,3.6,47.99c0,0.2,0.08,0.39,0.22,0.53c0.14,0.14,0.33,0.22,0.53,0.22h43.19c0.2,0,0.39-0.08,0.53-0.22     c0.14-0.14,0.22-0.33,0.22-0.53C48.22,38.05,41.48,29.26,31.91,26.61z M39.87,47.25v-4.27c0-0.41-0.34-0.75-0.75-0.75     s-0.75,0.34-0.75,0.75v4.27H13.51v-4.27c0-0.41-0.34-0.75-0.75-0.75s-0.75,0.34-0.75,0.75v4.27h-6.9     c0.38-8.77,6.31-16.46,14.71-19.03l5.47,9.48c0.27,0.46,1.03,0.46,1.3,0l5.47-9.48c8.39,2.57,14.32,10.26,14.7,19.03H39.87z"/><path class="st4" d="M20.37,14.45c0,0.41,0.34,0.75,0.75,0.75h0.87c0.28,0.78,0.71,1.51,1.33,2.13c1.1,1.1,2.56,1.69,4.05,1.69     c0.6,0,1.21-0.1,1.81-0.29c0.39-0.13,0.61-0.55,0.48-0.95c-0.13-0.39-0.55-0.61-0.95-0.48c-1.53,0.5-3.18,0.11-4.33-1.04     c-0.32-0.32-0.56-0.69-0.76-1.07h4.11c0.41,0,0.75-0.34,0.75-0.75s-0.34-0.75-0.75-0.75h-4.55c-0.03-0.29-0.03-0.58,0-0.86h4.55     c0.41,0,0.75-0.34,0.75-0.75s-0.34-0.75-0.75-0.75h-4.11c0.2-0.38,0.44-0.75,0.76-1.07c1.14-1.14,2.8-1.54,4.33-1.04     c0.39,0.13,0.82-0.08,0.95-0.48c0.13-0.39-0.08-0.82-0.48-0.95c-2.07-0.68-4.31-0.15-5.86,1.4c-0.62,0.62-1.05,1.35-1.33,2.13     h-0.87c-0.41,0-0.75,0.34-0.75,0.75s0.34,0.75,0.75,0.75h0.56c-0.02,0.29-0.02,0.58,0,0.86h-0.56     C20.7,13.7,20.37,14.04,20.37,14.45z"/></g></g></g></svg>