<?xml version="1.0" encoding="utf-8"?>
<!-- Generator: Adobe Illustrator 24.3.0, SVG Export Plug-In . SVG Version: 6.00 Build 0)  -->
<svg version="1.1" id="Слой_1" xmlns="http://www.w3.org/2000/svg" xmlns:xlink="http://www.w3.org/1999/xlink" x="0px" y="0px"
	 viewBox="0 0 80 80" style="enable-background:new 0 0 80 80;" xml:space="preserve">
<style type="text/css">
	.st0{fill:#FAFAFA;}
	.st1{fill:#E5E5E5;}
	.st2{fill:#A1A1A1;}
</style>
<path class="st0" d="M49.2,31.8c1.3,0.4,2.4,1,3.5,1.7l0.3,0.3v0.3l-2.3,4.7l-0.2,0.2l-0.3,0.1l-0.3,0c-0.8-0.5-1.7-0.9-2.5-1.3
	l-2.5-0.8l0,0l-2.2-0.3c-0.5,0-1.1,0.1-1.5,0.3c-0.3,0.2-0.5,0.5-0.5,0.8V38c0,0.5,0.3,0.9,0.7,1.1c0.7,0.4,1.4,0.8,2.2,1l3,0.8
	c1.1,0.4,2.1,0.8,3.1,1.3c1,0.5,1.9,1.3,2.5,2.3c0.7,1.1,1,2.4,1,3.8c0,1.4-0.4,2.7-1.1,3.9c-0.7,1-1.7,1.9-2.9,2.5h0
	c-1.1,0.6-2.3,1-3.5,1.2v4.6l-0.2,0.4L45,61h-4.4l-0.4-0.2L40,60.4v-4.7c-1.4-0.3-2.7-0.7-4-1.3c-1.3-0.6-2.6-1.4-3.8-2.3l-0.2-0.3
	v-0.4l2.3-4.7l0.2-0.3H35l0.3,0.1c0.8,0.7,1.6,1.3,2.5,1.8l0,0c0.9,0.5,1.9,0.8,2.9,1.1l2.6,0.5l1.9-0.5c0.4-0.2,0.6-0.6,0.5-1
	c0-0.5-0.3-0.9-0.7-1.2c-0.6-0.4-1.4-0.8-2.1-1l-3-0.8l-3-1.3c-1-0.5-1.8-1.3-2.5-2.2c-0.7-1.1-1-2.4-1-3.7l0,0
	c0-1.8,0.6-3.6,1.9-4.9c1.3-1.2,2.9-2.1,4.6-2.4v-4.6l0.2-0.4c0.1-0.1,0.3-0.1,0.4-0.1H45l0.3,0.1l0.2,0.4v4.4L49.2,31.8 M67,43
	c0.1-6.4-2.4-12.5-7-17c-4.5-4.6-10.6-7.1-17-7c-13.2-0.1-23.9,10.6-24,23.8c0,0.1,0,0.1,0,0.2c-0.1,6.4,2.4,12.5,7,17
	c4.5,4.6,10.6,7.1,17,7c6.4,0.1,12.5-2.4,17-7C64.6,55.5,67.1,49.4,67,43 M75,43c0.1,8.5-3.3,16.7-9.4,22.7
	C59.7,71.8,51.5,75.1,43,75c-8.5,0.1-16.7-3.2-22.6-9.3c-4-3.9-6.9-8.9-8.4-14.4c-0.7-2.7-1-5.5-1-8.3c0-2.8,0.3-5.6,1-8.3
	c1.4-5.5,4.3-10.4,8.4-14.4c5.9-6.1,14.1-9.5,22.6-9.4c8.5-0.1,16.7,3.2,22.6,9.4C71.7,26.3,75.1,34.5,75,43"/>
<path class="st1" d="M49.2,31.8l-3.7-0.9v-4.4l-0.2-0.4L45,26h-4.4c-0.1,0-0.3,0.1-0.4,0.1L40,26.5v4.6c-1.7,0.3-3.4,1.2-4.7,2.4
	c-1.3,1.3-1.9,3.1-1.9,4.9l0,0c0,1.3,0.3,2.6,1,3.7c0.7,0.9,1.5,1.7,2.5,2.2l3,1.3l3,0.8c0.7,0.2,1.5,0.5,2.1,1
	c0.4,0.3,0.6,0.7,0.7,1.2c0,0.4-0.2,0.8-0.5,1L43.3,50l-2.6-0.5c-1-0.3-1.9-0.7-2.8-1.2l0,0c-0.9-0.5-1.8-1.1-2.5-1.8l-0.3-0.1h-0.3
	l-0.2,0.3L32,51.4v0.4l0.2,0.3c1.1,1,2.4,1.8,3.8,2.4c1.3,0.6,2.6,1,4,1.3v4.8l0.2,0.4l0.4,0.2H45l0.3-0.2l0.2-0.4v-4.6
	c1.2-0.2,2.4-0.6,3.5-1.2h0c1.2-0.6,2.1-1.5,2.9-2.5c0.7-1.2,1.1-2.5,1.1-3.9c0-1.3-0.3-2.6-1-3.8c-0.6-1-1.4-1.8-2.5-2.3
	c-1-0.5-2-1-3.1-1.3l-3-0.8c-0.8-0.2-1.5-0.6-2.2-1c-0.4-0.2-0.6-0.6-0.7-1.1v0c0-0.3,0.2-0.7,0.5-0.8c0.5-0.2,1-0.3,1.5-0.3
	l2.2,0.3l0,0l2.5,0.8c0.9,0.3,1.7,0.8,2.6,1.3l0.3,0l0.3-0.1l0.2-0.2l2.3-4.7v-0.3l-0.3-0.3C51.6,32.8,50.5,32.2,49.2,31.8 M67,43
	c0.1,6.4-2.4,12.5-7,17c-4.5,4.6-10.6,7.1-17,7c-6.4,0.1-12.5-2.4-17-7c-4.6-4.5-7.1-10.6-7-17c-0.1-13.2,10.6-23.9,23.8-24
	c0.1,0,0.1,0,0.2,0c6.4-0.1,12.5,2.4,17,7C64.6,30.5,67.1,36.6,67,43"/>
<path class="st2" d="M75,43c0.1-8.5-3.3-16.7-9.4-22.6C59.7,14.2,51.5,10.9,43,11c-8.5-0.1-16.7,3.2-22.6,9.4c-4,4-6.9,8.9-8.4,14.4
	c-0.7,2.7-1,5.5-1,8.3c0,2.8,0.3,5.6,1,8.3c1.4,5.5,4.3,10.4,8.4,14.4c5.9,6.1,14.1,9.5,22.6,9.3c8.5,0.1,16.7-3.2,22.6-9.3
	C71.7,59.7,75.1,51.5,75,43 M69.2,16.9c7.1,6.8,11,16.3,10.8,26.1c0.2,9.9-3.8,19.3-10.8,26.2c-6.9,7-16.3,11-26.2,10.8
	c-9.8,0.2-19.3-3.7-26.1-10.8c-4.7-4.6-8.1-10.3-9.7-16.7C6.4,49.4,6,46.2,6,43c0-3.2,0.4-6.4,1.2-9.5c1.6-6.3,5-12.1,9.6-16.7h0
	C23.7,9.8,33.2,5.8,43,6C52.8,5.9,62.3,9.8,69.2,16.9"/>
</svg>
